<svg xmlns="http://www.w3.org/2000/svg" viewBox="0 0 35.98 35.99"><defs><style>.cls-1{fill:#fff;}</style></defs><title>cross light</title><g id="Layer_2" data-name="Layer 2"><g id="Layer_1-2" data-name="Layer 1"><g id="Layer_2-2" data-name="Layer 2"><g id="Layer_1-2-2" data-name="Layer 1-2"><path class="cls-1" d="M35.47,29.9,23.57,18,35.47,6.08a1.72,1.72,0,0,0,0-2.43L32.32.5A1.72,1.72,0,0,0,29.9.5L18,12.41,6.08.5A1.72,1.72,0,0,0,3.65.5L.5,3.65a1.72,1.72,0,0,0,0,2.43L12.41,18,.5,29.9a1.72,1.72,0,0,0,0,2.43l3.15,3.15a1.72,1.72,0,0,0,2.43,0L18,23.57l11.9,11.9a1.72,1.72,0,0,0,2.43,0l3.15-3.15A1.72,1.72,0,0,0,35.47,29.9Z"/></g></g></g></g></svg>