<svg xmlns="http://www.w3.org/2000/svg" viewBox="0 0 115 115.1"><defs><style>.cls-1{fill:#fff;}</style></defs><title>dark-trash</title><g id="Layer_2" data-name="Layer 2"><g id="Layer_1-2" data-name="Layer 1"><g id="Layer_2-2" data-name="Layer 2"><g id="Layer_1-2-2" data-name="Layer 1-2"><path class="cls-1" d="M47.8,93.3a3,3,0,0,1-3-2.9L43.5,39.9a3,3,0,1,1,6-.2l1.3,50.5a3,3,0,0,1-3,3.1Z"/><path class="cls-1" d="M67.3,93.3a3,3,0,0,0,3-2.9l1.3-50.5a3,3,0,1,0-6-.2L64.3,90.2a2.91,2.91,0,0,0,3,3.1Z"/><path class="cls-1" d="M112.5,17H83.1V10.3A10.29,10.29,0,0,0,72.8,0H42.2A10.29,10.29,0,0,0,31.9,10.3V17H2.5a2.5,2.5,0,0,0,0,5H15.1l3.7,77.8c.4,8.6,8,15.3,17.2,15.3H79c9.2,0,16.8-6.7,17.2-15.3L99.9,22h12.6a2.5,2.5,0,0,0,0-5ZM35.9,10.3A6.34,6.34,0,0,1,42.2,4H72.9a6.27,6.27,0,0,1,6.3,6.3V17H35.9ZM91.2,99.5C90.9,105.4,85.6,110,79,110H36c-6.6,0-11.9-4.6-12.2-10.5L20.1,22H94.9Z"/></g></g></g></g></svg>