<svg xmlns="http://www.w3.org/2000/svg" viewBox="0 0 45 45"><defs><style>.cls-1{fill:#fff;}</style></defs><title>plus light</title><g id="Layer_2" data-name="Layer 2"><g id="Layer_1-2" data-name="Layer 1"><g id="Layer_2-2" data-name="Layer 2"><g id="Layer_1-2-2" data-name="Layer 1-2"><path class="cls-1" d="M43.28,18.56H26.44V1.72A1.72,1.72,0,0,0,24.73,0H20.27a1.72,1.72,0,0,0-1.72,1.72V18.56H1.72A1.72,1.72,0,0,0,0,20.27v4.46a1.72,1.72,0,0,0,1.72,1.72H18.56V43.28A1.72,1.72,0,0,0,20.27,45h4.46a1.72,1.72,0,0,0,1.72-1.72h0V26.44H43.28A1.72,1.72,0,0,0,45,24.73V20.27A1.72,1.72,0,0,0,43.28,18.56Z"/></g></g></g></g></svg>