<?xml version="1.0" encoding="utf-8"?>
<!-- Generator: Adobe Illustrator 21.0.2, SVG Export Plug-In . SVG Version: 6.00 Build 0)  -->
<svg version="1.1" id="Layer_1" xmlns="http://www.w3.org/2000/svg" xmlns:xlink="http://www.w3.org/1999/xlink" x="0px" y="0px"
	 viewBox="0 0 115 115" style="enable-background:new 0 0 115 115;" xml:space="preserve">
<style type="text/css">
	.st0{fill:#4F4F4F;}
</style>
<title>Trash</title>
<g id="Layer_2">
	<g id="Layer_1-2">
		<path class="st0" d="M47.8,93.3c-1.6,0-3-1.3-3-2.9l-1.3-50.5c0-1.7,1.3-3,2.9-3.1c1.7,0,3,1.3,3.1,2.9l1.3,50.5
			C50.8,91.9,49.5,93.3,47.8,93.3C47.8,93.3,47.8,93.3,47.8,93.3L47.8,93.3z"/>
		<path class="st0" d="M67.3,93.3c1.6,0,3-1.3,3-2.9l1.3-50.5c0-1.7-1.3-3-2.9-3.1c-1.7,0-3,1.3-3.1,2.9l-1.3,50.5
			C64.2,91.9,65.5,93.3,67.3,93.3C67.2,93.3,67.2,93.3,67.3,93.3L67.3,93.3z"/>
		<path class="st0" d="M112.5,17H83.1v-6.7C83.1,4.6,78.5,0,72.8,0H42.2c-5.7,0-10.3,4.6-10.3,10.3V17H2.5C1.1,17,0,18.1,0,19.5
			S1.1,22,2.5,22h12.6l3.7,77.8c0.4,8.6,8,15.3,17.2,15.3h43c9.2,0,16.8-6.7,17.2-15.3L99.9,22h12.6c1.4,0,2.5-1.1,2.5-2.5
			S113.9,17,112.5,17z M35.9,10.3c0-3.5,2.8-6.2,6.3-6.3h30.7c3.5,0,6.3,2.8,6.3,6.3V17H35.9L35.9,10.3z M91.2,99.5
			C90.9,105.4,85.6,110,79,110H36c-6.6,0-11.9-4.6-12.2-10.5L20.1,22h74.8L91.2,99.5z"/>
	</g>
</g>
</svg>
