<svg xmlns="http://www.w3.org/2000/svg" viewBox="0 0 115 115"><title>Trash</title><g id="Layer_2" data-name="Layer 2"><g id="Layer_1-2" data-name="Layer 1"><path d="M47.75,93.33a3,3,0,0,1-3-2.92l-1.33-50.5a3,3,0,0,1,6-.16l1.33,50.5a3,3,0,0,1-2.92,3.08Z"/><path d="M67.25,93.33a3,3,0,0,0,3-2.92l1.33-50.5a3,3,0,0,0-6-.16l-1.33,50.5a3,3,0,0,0,2.92,3.08Z"/><path d="M112.5,17H83.1V10.26A10.27,10.27,0,0,0,72.84,0H42.15A10.27,10.27,0,0,0,31.89,10.26V17H2.5a2.5,2.5,0,0,0,0,5H15.11l3.68,77.75c.4,8.55,8,15.25,17.2,15.25H79c9.24,0,16.79-6.7,17.2-15.25L99.88,22H112.5a2.5,2.5,0,1,0,0-5Zm-76.6-6.74A6.27,6.27,0,0,1,42.15,4H72.84a6.27,6.27,0,0,1,6.26,6.26V17H35.89ZM91.21,99.52C90.93,105.39,85.57,110,79,110H36c-6.56,0-11.92-4.61-12.2-10.48L20.12,22H94.88Z"/></g></g></svg>